<svg xmlns="http://www.w3.org/2000/svg" viewBox="0 0 800 600">
<defs><linearGradient id="bg" x1="0" y1="0" x2="0" y2="1">
<stop offset="0" stop-color="#F8F8F9"/><stop offset="1" stop-color="#ECEEF1"/>
</linearGradient></defs>
<rect width="800" height="600" fill="url(#bg)"/>
<line x1="100" y1="0" x2="100" y2="600" stroke="#D7DBE0" stroke-width="2"/><line x1="200" y1="0" x2="200" y2="600" stroke="#D7DBE0" stroke-width="2"/><line x1="300" y1="0" x2="300" y2="600" stroke="#D7DBE0" stroke-width="2"/><line x1="400" y1="0" x2="400" y2="600" stroke="#D7DBE0" stroke-width="2"/><line x1="500" y1="0" x2="500" y2="600" stroke="#D7DBE0" stroke-width="2"/><line x1="600" y1="0" x2="600" y2="600" stroke="#D7DBE0" stroke-width="2"/><line x1="700" y1="0" x2="700" y2="600" stroke="#D7DBE0" stroke-width="2"/><line x1="0" y1="100" x2="800" y2="100" stroke="#D7DBE0" stroke-width="2"/><line x1="0" y1="200" x2="800" y2="200" stroke="#D7DBE0" stroke-width="2"/><line x1="0" y1="300" x2="800" y2="300" stroke="#D7DBE0" stroke-width="2"/><line x1="0" y1="400" x2="800" y2="400" stroke="#D7DBE0" stroke-width="2"/><line x1="0" y1="500" x2="800" y2="500" stroke="#D7DBE0" stroke-width="2"/>
<g fill="none" stroke="#1C2E44" stroke-width="11" stroke-linecap="round" stroke-linejoin="round">

    <rect x="240" y="150" width="240" height="300" rx="8"/>
    <line x1="360" y1="150" x2="360" y2="450"/>
    <line x1="240" y1="300" x2="480" y2="300"/>
    <path d="M510 130 v340" stroke="#F6B015" stroke-width="16"/>
    <path d="M510 130 h44 v40" stroke="#F6B015"/>
    <path d="M510 470 h44 v-40" stroke="#F6B015"/>
</g>
</svg>